<?xml version="1.0" encoding="UTF-8"?>
<!DOCTYPE svg PUBLIC "-//W3C//DTD SVG 1.1//EN" "http://www.w3.org/Graphics/SVG/1.1/DTD/svg11.dtd">
<svg xmlns="http://www.w3.org/2000/svg" version="1.1" width="3146px" height="1088px" style="shape-rendering:geometricPrecision; text-rendering:geometricPrecision; image-rendering:optimizeQuality; fill-rule:evenodd; clip-rule:evenodd" xmlns:xlink="http://www.w3.org/1999/xlink">
<g><path style="opacity:0.987" fill="#6e6f6d" d="M 477.5,89.5 C 620.175,87.4099 740.008,138.077 837,241.5C 930.592,349.986 967.926,475.653 949,618.5C 923.911,761.98 849.411,871.147 725.5,946C 615.298,1007.32 498.965,1022.65 376.5,992C 256.165,957.623 163.665,887.123 99,780.5C 36.0352,668.452 20.7019,550.119 53,425.5C 94.192,288.65 179.359,189.817 308.5,129C 362.524,105.432 418.857,92.2657 477.5,89.5 Z M 659.5,200.5 C 620.401,195.791 594.901,212.124 583,249.5C 577.973,283.954 591.14,308.454 622.5,323C 655.536,332.879 681.703,323.713 701,295.5C 715.335,265.849 711.169,239.183 688.5,215.5C 782.082,270.972 842.582,351.639 870,457.5C 898.223,589.281 868.556,705.948 781,807.5C 686.076,906.591 570.243,947.091 433.5,929C 368.626,918.38 310.626,892.88 259.5,852.5C 285.351,863.437 309.351,860.271 331.5,843C 355.176,817.767 358.676,789.933 342,759.5C 322.523,734.12 297.357,725.953 266.5,735C 237.548,747.639 223.715,769.806 225,801.5C 226.376,813.133 230.209,823.8 236.5,833.5C 154.445,756.852 112.111,662.019 109.5,549C 114.359,404.552 177.359,293.885 298.5,217C 404.246,157.326 514.579,147.326 629.5,187C 639.946,190.727 649.946,195.227 659.5,200.5 Z"/></g>
<g><path style="opacity:0.986" fill="#4a8a33" d="M 659.5,200.5 C 659.833,200.5 660.167,200.5 660.5,200.5C 669.929,204.243 678.929,208.91 687.5,214.5C 687.5,215.167 687.833,215.5 688.5,215.5C 711.169,239.183 715.335,265.849 701,295.5C 681.703,323.713 655.536,332.879 622.5,323C 591.14,308.454 577.973,283.954 583,249.5C 594.901,212.124 620.401,195.791 659.5,200.5 Z"/></g>
<g><path style="opacity:0.992" fill="#498b32" d="M 3033.5,222.5 C 3034.83,222.5 3036.17,222.5 3037.5,222.5C 3037.5,417.5 3037.5,612.5 3037.5,807.5C 3004.83,807.5 2972.17,807.5 2939.5,807.5C 2939.67,799.493 2939.5,791.493 2939,783.5C 2931.44,790.37 2922.94,795.87 2913.5,800C 2862.34,820.24 2811.01,820.573 2759.5,801C 2707.83,777.316 2675,737.816 2661,682.5C 2648.44,632.159 2648.44,581.825 2661,531.5C 2680.07,465.441 2721.24,419.275 2784.5,393C 2830.17,377.703 2875.84,377.703 2921.5,393C 2927.29,395.209 2932.96,397.709 2938.5,400.5C 2939.17,348.833 2939.83,297.167 2940.5,245.5C 2971.65,237.961 3002.65,230.295 3033.5,222.5 Z M 2864.5,465.5 C 2892.74,463.968 2917.57,472.302 2939,490.5C 2939.67,562.833 2939.67,635.167 2939,707.5C 2932.78,713.695 2925.62,718.529 2917.5,722C 2890.22,734.33 2862.22,735.997 2833.5,727C 2793.42,715.916 2768.58,690.082 2759,649.5C 2753.4,619.566 2753.06,589.566 2758,559.5C 2770.35,501.638 2805.85,470.305 2864.5,465.5 Z"/></g>
<g><path style="opacity:0.984" fill="#498b32" d="M 1213.5,228.5 C 1248.03,225.564 1270.19,240.564 1280,273.5C 1284.31,303.044 1273.14,324.544 1246.5,338C 1212.78,348.546 1187.61,338.38 1171,307.5C 1161.25,278.746 1168.42,255.246 1192.5,237C 1199.19,233.057 1206.19,230.224 1213.5,228.5 Z"/></g>
<g><path style="opacity:0.987" fill="#498b32" d="M 483.5,273.5 C 516.344,269.998 539.844,282.998 554,312.5C 560.139,328.789 559.972,344.956 553.5,361C 583.28,353.593 607.78,361.76 627,385.5C 642.573,410.745 642.24,435.745 626,460.5C 607.874,482.832 584.707,490.666 556.5,484C 521.763,470.708 506.93,445.541 512,408.5C 512.773,404.847 513.94,401.347 515.5,398C 485.767,405.422 461.267,397.256 442,373.5C 426.484,347.743 427.151,322.41 444,297.5C 454.375,284.737 467.541,276.737 483.5,273.5 Z"/></g>
<g><path style="opacity:0.988" fill="#498b32" d="M 1507.5,381.5 C 1554.16,380.168 1598.16,390.168 1639.5,411.5C 1630.1,436.872 1620.6,462.205 1611,487.5C 1590.66,471.604 1567.5,462.771 1541.5,461C 1530.5,460.333 1519.5,460.333 1508.5,461C 1481.6,464.953 1469.77,480.453 1473,507.5C 1477.64,519.138 1485.47,527.971 1496.5,534C 1521.09,546.963 1546.43,558.296 1572.5,568C 1597.22,578.268 1618.72,593.101 1637,612.5C 1656.74,638.064 1665.41,667.064 1663,699.5C 1660.18,739.662 1641.68,770.162 1607.5,791C 1574.43,808.518 1539.09,816.684 1501.5,815.5C 1464.18,817.115 1428.84,809.615 1395.5,793C 1387.43,789.215 1379.6,785.049 1372,780.5C 1382.55,754.711 1393.72,729.045 1405.5,703.5C 1406.36,702.417 1407.36,702.251 1408.5,703C 1446.85,733.338 1489.85,743.005 1537.5,732C 1553.19,725.461 1561.19,713.627 1561.5,696.5C 1560.31,676.621 1551.31,661.454 1534.5,651C 1512.72,638.288 1490.05,627.288 1466.5,618C 1439.41,606.545 1415.91,590.045 1396,568.5C 1368.61,533.297 1362.61,494.63 1378,452.5C 1392.61,423.268 1415.44,403.435 1446.5,393C 1466.45,386.345 1486.78,382.512 1507.5,381.5 Z"/></g>
<g><path style="opacity:0.99" fill="#498b32" d="M 1911.5,381.5 C 1954.08,379.648 1994.08,388.815 2031.5,409C 2095.96,451.097 2125.46,510.93 2120,588.5C 2118.21,601.597 2115.87,614.597 2113,627.5C 2013.9,628.499 1914.74,628.832 1815.5,628.5C 1818.82,683.327 1847.16,717.16 1900.5,730C 1933.08,735.672 1965.08,733.339 1996.5,723C 2010.92,717.233 2023.75,709.066 2035,698.5C 2047.71,723.412 2060.54,748.245 2073.5,773C 2054.67,788.417 2033.33,799.083 2009.5,805C 1955.54,818.364 1901.54,818.697 1847.5,806C 1774.11,781.935 1730.61,731.769 1717,655.5C 1708.47,606.082 1712.47,557.749 1729,510.5C 1754.69,450.471 1798.53,410.304 1860.5,390C 1877.36,385.412 1894.36,382.579 1911.5,381.5 Z M 1905.5,464.5 C 1928.66,462.214 1951,465.381 1972.5,474C 1998.09,487.638 2013.59,508.805 2019,537.5C 2020.27,543.111 2021.1,548.778 2021.5,554.5C 1954.17,554.5 1886.83,554.5 1819.5,554.5C 1823.55,532.068 1832.72,512.068 1847,494.5C 1863.07,477.716 1882.57,467.716 1905.5,464.5 Z"/></g>
<g><path style="opacity:0.991" fill="#498b32" d="M 2399.5,381.5 C 2432.55,380.01 2463.89,386.51 2493.5,401C 2534.29,425.835 2558.46,462.002 2566,509.5C 2567.59,519.776 2568.59,530.109 2569,540.5C 2569.5,629.499 2569.67,718.499 2569.5,807.5C 2536.83,807.5 2504.17,807.5 2471.5,807.5C 2471.67,724.833 2471.5,642.166 2471,559.5C 2471.17,537.698 2466.51,517.031 2457,497.5C 2444.04,477.59 2425.54,466.757 2401.5,465C 2370.56,461.87 2342.9,469.87 2318.5,489C 2312.33,493.833 2306.83,499.333 2302,505.5C 2301.5,606.166 2301.33,706.833 2301.5,807.5C 2268.83,807.5 2236.17,807.5 2203.5,807.5C 2203.5,668.167 2203.5,528.833 2203.5,389.5C 2227.18,389.167 2250.84,389.5 2274.5,390.5C 2280.35,402.864 2286.18,415.197 2292,427.5C 2310.4,406.708 2333.24,393.208 2360.5,387C 2373.52,384.249 2386.52,382.416 2399.5,381.5 Z"/></g>
<g><path style="opacity:0.986" fill="#498b32" d="M 1119.5,389.5 C 1170.83,389.5 1222.17,389.5 1273.5,389.5C 1273.5,528.833 1273.5,668.167 1273.5,807.5C 1240.17,807.5 1206.83,807.5 1173.5,807.5C 1173.5,695.167 1173.5,582.833 1173.5,470.5C 1155.5,470.5 1137.5,470.5 1119.5,470.5C 1119.5,443.5 1119.5,416.5 1119.5,389.5 Z"/></g>
<g><path style="opacity:0.985" fill="#498b32" d="M 558.5,515.5 C 596.335,513.862 620.168,531.195 630,567.5C 633.89,600.895 620.724,624.728 590.5,639C 561.776,648.195 537.276,641.695 517,619.5C 499.416,593.397 499.083,567.064 516,540.5C 526.935,526.618 541.102,518.284 558.5,515.5 Z"/></g>
<g><path style="opacity:0.987" fill="#498b32" d="M 407.5,552.5 C 444.814,552.896 467.647,571.229 476,607.5C 478.977,635.711 468.477,657.211 444.5,672C 473.32,686.128 486.154,709.295 483,741.5C 475.264,774.898 454.264,792.898 420,795.5C 385.736,792.898 364.736,774.898 357,741.5C 353.854,713.299 364.021,691.466 387.5,676C 354.383,657.672 342.883,630.172 353,593.5C 363.344,569.31 381.51,555.643 407.5,552.5 Z"/></g>
<g><path style="opacity:0.985" fill="#498b32" d="M 552.5,663.5 C 593.633,665.301 616.299,686.635 620.5,727.5C 617.924,762.907 599.258,784.073 564.5,791C 531.908,793.126 509.075,779.293 496,749.5C 486.938,716.672 496.438,690.839 524.5,672C 533.444,667.404 542.777,664.57 552.5,663.5 Z"/></g>
<g><path style="opacity:0.986" fill="#4a8a33" d="M 259.5,852.5 C 259.158,851.662 258.492,851.328 257.5,851.5C 250.916,847.253 244.916,842.253 239.5,836.5C 239.5,835.833 239.167,835.5 238.5,835.5C 238.5,834.833 238.167,834.5 237.5,834.5C 237.5,833.833 237.167,833.5 236.5,833.5C 230.209,823.8 226.376,813.133 225,801.5C 223.715,769.806 237.548,747.639 266.5,735C 297.357,725.953 322.523,734.12 342,759.5C 358.676,789.933 355.176,817.767 331.5,843C 309.351,860.271 285.351,863.437 259.5,852.5 Z"/></g>
</svg>
